<?xml version="1.0" encoding="utf-8"?>
<!-- Generator: Adobe Illustrator 23.0.3, SVG Export Plug-In . SVG Version: 6.00 Build 0)  -->
<svg version="1.1" id="Layer_1" xmlns="http://www.w3.org/2000/svg" xmlns:xlink="http://www.w3.org/1999/xlink" x="0px" y="0px"
	 viewBox="0 0 575.807 176.4521" style="enable-background:new 0 0 575.807 176.4521;" xml:space="preserve">
<style type="text/css">
	.st0{clip-path:url(#SVGID_2_);fill:#2C2C2E;}
	.st1{clip-path:url(#SVGID_4_);fill:#FFFFFF;}
	.st2{clip-path:url(#SVGID_6_);fill:#FFFFFF;}
	.st3{clip-path:url(#SVGID_8_);fill:#2C2C2E;}
</style>
<g id="Claris_4_">
	<defs>
		<rect id="SVGID_3_" x="0.0001" y="0" width="575.8069" height="176.452"/>
	</defs>
	<clipPath id="SVGID_2_">
		<use xlink:href="#SVGID_3_"  style="overflow:visible;"/>
	</clipPath>
	<path id="Claris" style="clip-path:url(#SVGID_2_);fill:#FFFFFF;" d="M77.5802,176.1292c0.9685,0.1614,2.2588,0.3228,4.1936,0.3228
		c48.7107,0,88.226-39.5165,88.226-88.226C169.9998,39.5164,130.4844,0,81.7738,0c-1.9348,0-3.2251,0.1614-4.1936,0.3228
		l87.9032,87.9032L77.5802,176.1292L77.5802,176.1292z M70.4833,158.7105c1.9359,0,3.2262-0.1615,4.1936-0.3228L4.5164,88.2261
		l70.1605-70.1616c-0.9674-0.1614-2.2576-0.3228-4.1936-0.3228C31.6125,17.7416,0,49.3552,0,88.2261
		C0,127.0968,31.6125,158.7105,70.4833,158.7105L70.4833,158.7105z M323.5482,145.6456h10.6459v-120h-10.6459V145.6456
		L323.5482,145.6456z M263.7096,147.5814c24.6782,0,42.4198-13.5491,46.4519-35.9686h-10.8062
		c-3.5489,16.1296-17.7427,25.9684-35.6457,25.9684c-24.9999,0-40.3224-19.1933-40.3224-49.3552
		c0-29.9994,15.9682-49.3553,39.8393-49.3553c18.5476,0,32.9028,11.7747,36.1289,28.3875h10.8062
		c-3.0647-22.5808-21.9352-38.3866-46.9351-38.3866c-30.8065,0-51.1297,23.2254-51.1297,59.3543
		C212.0967,124.8392,231.9357,147.5814,263.7096,147.5814L263.7096,147.5814z M490.3229,43.71c4.0322,0,7.4197-3.3876,7.4197-7.4197
		c0-4.0321-3.3875-7.4186-7.4197-7.4186c-4.0322,0-7.4186,3.3865-7.4186,7.4186C482.9043,40.3225,486.2907,43.71,490.3229,43.71
		L490.3229,43.71z M75.9682,140.646c28.8706,0,52.4188-23.5493,52.4188-52.4199c0-28.8706-23.5482-52.4189-52.4188-52.4189
		c-1.9359,0-3.2262,0.1603-4.1936,0.3217l52.096,52.0972l-52.096,52.0971C72.7421,140.4846,74.0323,140.646,75.9682,140.646
		L75.9682,140.646z M72.9035,122.7419c1.9348,0,3.2251-0.1603,4.1936-0.3217L42.9029,88.2261l34.1941-34.193
		c-0.9685-0.1614-2.2588-0.3229-4.1936-0.3229c-19.033,0-34.5169,15.484-34.5169,34.5159
		C38.3865,107.2579,53.8705,122.7419,72.9035,122.7419L72.9035,122.7419z M376.9355,146.9358
		c13.8708,0,25.1613-7.0969,29.6778-17.5802h0.4843v16.29h10.0001V86.7743c0-17.097-12.7421-28.226-32.0968-28.226
		c-18.3873,0-31.775,10.8072-32.581,25.807h10.1616c1.7734-10.323,9.8387-16.4514,22.4194-16.4514
		c13.3867,0,21.4509,7.2572,21.4509,19.8378v7.7425l-26.2901,1.6131c-20.6449,1.2902-31.6125,10.0002-31.6125,24.6771
		C348.5492,136.7742,360.4842,146.9358,376.9355,146.9358L376.9355,146.9358z M543.5488,146.9358
		c18.5488,0,32.2582-9.6773,32.2582-24.1939c0-11.4507-6.451-19.3547-23.7097-23.3868l-13.2252-3.0647
		c-10.9687-2.5805-15.9682-6.9354-15.9682-13.8709c0-9.0317,8.71-14.5155,20.0004-14.5155c12.2579,0,20.1607,6.2898,21.1292,16.1285
		h10.1605c-0.806-14.9997-13.3867-25.4841-31.2897-25.4841c-17.2585,0-30.6451,9.3556-30.6451,23.8711
		c0,11.129,7.4185,19.3547,22.4183,22.9037l14.3552,3.3865c11.7747,2.7419,16.1296,6.9355,16.1296,14.0323
		c0,9.3556-8.71,14.8394-21.6135,14.8394c-13.2252,0-21.6123-6.1295-23.064-15.9682h-10.4844
		C511.2906,136.1296,524.517,146.9358,543.5488,146.9358L543.5488,146.9358z M436.1295,145.6456h10.6447V93.8712
		c0-15.1611,7.7426-24.8385,20.3232-24.8385c3.3864,0,6.4513,0.6446,7.9029,1.2902V59.8386
		c-1.2903-0.3218-4.0322-0.806-7.0969-0.806c-10.4833,0-18.2258,5.9681-21.2906,16.1286h-0.4832V59.8386h-10.0002V145.6456
		L436.1295,145.6456z M485.1619,145.6456h10.6447v-85.807h-10.6447V145.6456L485.1619,145.6456z M379.3557,137.5813
		c-11.9361,0-20.0004-6.1295-20.0004-15.8068c0-9.5159,7.58-15.1612,22.0966-16.1286l24.9999-1.6131v9.3545
		C406.4518,126.9354,394.8386,137.5813,379.3557,137.5813L379.3557,137.5813z"/>
</g>
</svg>
